<svg xmlns="http://www.w3.org/2000/svg" viewBox="0 0 210 52.1"><defs><style>.a{fill:#fdda24;}.b{fill:#fff;}</style></defs><title>kyivstar-logo</title><path class="a" d="M306,135.76a4.86,4.86,0,1,0-4.9,4.86,4.81,4.81,0,0,0,4.9-4.86" transform="translate(-194.16 -124.63)"/><path class="a" d="M318.58,135.76a4.86,4.86,0,1,0-4.9,4.86,4.84,4.84,0,0,0,4.9-4.86" transform="translate(-194.16 -124.63)"/><path class="b" d="M272.14,152.2l6.18-7.42a0.64,0.64,0,0,0-.48-1.13H273.2a1.59,1.59,0,0,0-1.24.62l-4.24,5.56v-5.19a0.87,0.87,0,0,0-1-1h-3.36a0.87,0.87,0,0,0-1,1v17.18a0.87,0.87,0,0,0,1,1h3.36a0.87,0.87,0,0,0,1-1v-6.25l5.59,6.58a1.43,1.43,0,0,0,1.13.66h4.9a0.66,0.66,0,0,0,.51-1.1Z" transform="translate(-194.16 -124.63)"/><path class="b" d="M309.12,143.65h-3.58a0.88,0.88,0,0,0-1,1v17.18a0.88,0.88,0,0,0,1,1h3.58a0.86,0.86,0,0,0,1-1V144.64a0.86,0.86,0,0,0-1-1" transform="translate(-194.16 -124.63)"/><path class="b" d="M396.77,143.66h-7.86a0.88,0.88,0,0,0-1,1v17.18a0.88,0.88,0,0,0,1,1h3.58a0.86,0.86,0,0,0,1-1v-4.56h3.07c4.31,0,7.6-2.37,7.6-6.64s-3.36-7-7.38-7m-0.4,9.36h-2.89v-4.94h2.82c3.76,0,4,4.94.07,4.94" transform="translate(-194.16 -124.63)"/><path class="b" d="M366.63,143.65H352.68a0.86,0.86,0,0,0-1,1V148a0.89,0.89,0,0,0,1,1h4.17v12.83a0.88,0.88,0,0,0,1,1h3.58a0.86,0.86,0,0,0,1-1V149h4.17a0.88,0.88,0,0,0,1-1v-3.33a0.86,0.86,0,0,0-1-1" transform="translate(-194.16 -124.63)"/><path class="b" d="M328.45,152.36c3.4-3.25,1.13-8.7-4.09-8.7h-8.77a0.88,0.88,0,0,0-1,1v17.18a0.89,0.89,0,0,0,1,1h9.65c6.84,0,8.66-7.86,3.22-10.45m-8.7-4.42h3.47a1.49,1.49,0,1,1,0,3h-3.47v-3Zm4.61,10.6h-4.61V155h4.61c2.81,0,3,3.58,0,3.58" transform="translate(-194.16 -124.63)"/><path class="b" d="M299.28,143.65h-4.35l-8,11v-10a0.86,0.86,0,0,0-1-1h-3.26a0.88,0.88,0,0,0-1,1v17.18a0.88,0.88,0,0,0,1,1H287L295,152v9.82a0.86,0.86,0,0,0,1,1h3.26a0.88,0.88,0,0,0,1-1V144.64a0.88,0.88,0,0,0-1-1" transform="translate(-194.16 -124.63)"/><path class="b" d="M342.72,158.35a5.12,5.12,0,1,1,0-10.24,6.62,6.62,0,0,1,4.17,1.54,0.77,0.77,0,0,0,1.32,0l2.16-2.12a0.8,0.8,0,0,0-.11-1.24,10.64,10.64,0,0,0-7.5-3.22,10.18,10.18,0,1,0,0,20.36,10.66,10.66,0,0,0,7.54-3.22,0.8,0.8,0,0,0,.11-1.24l-2.16-2.12a0.77,0.77,0,0,0-1.32,0,6.58,6.58,0,0,1-4.13,1.5" transform="translate(-194.16 -124.63)"/><path class="b" d="M386.07,161.86l-6.57-17.47a1,1,0,0,0-1.08-.73H374a1,1,0,0,0-1.08.73l-6.57,17.47a0.66,0.66,0,0,0,.66,1h4a0.92,0.92,0,0,0,.81-0.58l0.89-2.56h6.94l0.89,2.56a0.92,0.92,0,0,0,.81.58h4a0.66,0.66,0,0,0,.66-1m-11.81-6.58,1.95-5.63h0l1.95,5.63h-3.9Z" transform="translate(-194.16 -124.63)"/><path class="b" d="M221.36,144.46a3.5,3.5,0,0,1-3.5-3.5V128.13a3.5,3.5,0,0,1,7,0V141a3.5,3.5,0,0,1-3.5,3.5" transform="translate(-194.16 -124.63)"/><path class="b" d="M213.19,150.4a3.5,3.5,0,0,1-4.41,2.25l-12.2-4a3.5,3.5,0,1,1,2.16-6.66l12.2,4a3.5,3.5,0,0,1,2.25,4.41" transform="translate(-194.16 -124.63)"/><path class="b" d="M229.54,150.4a3.5,3.5,0,0,0,4.41,2.25l12.2-4A3.5,3.5,0,0,0,244,142l-12.2,4a3.5,3.5,0,0,0-2.25,4.41" transform="translate(-194.16 -124.63)"/><path class="b" d="M204.65,176.07a3.5,3.5,0,0,1-.78-4.89l7.54-10.38a3.5,3.5,0,0,1,5.66,4.11l-7.54,10.38a3.5,3.5,0,0,1-4.89.77" transform="translate(-194.16 -124.63)"/><path class="b" d="M238.08,176.07a3.5,3.5,0,0,0,.77-4.89l-7.54-10.38a3.5,3.5,0,0,0-5.66,4.11l7.54,10.38a3.5,3.5,0,0,0,4.89.77" transform="translate(-194.16 -124.63)"/></svg>